HIERARCHY
ROOT Hips
{
	OFFSET 0.000000 0.000000 0.000000
	CHANNELS 6 Xposition Yposition Zposition Xrotation Yrotation Zrotation
	JOINT LeftUpLeg_virtual
	{
		OFFSET 0.000000 0.000000 0.000000
		CHANNELS 3 Xrotation Yrotation Zrotation
		JOINT LeftUpLeg
		{
			OFFSET 11.394100 -6.187798 -0.413800
			CHANNELS 3 Xrotation Yrotation Zrotation
			JOINT LeftLeg
			{
				OFFSET 0.430247 -32.302673 3.732800
				CHANNELS 3 Xrotation Yrotation Zrotation
				JOINT LeftFoot
				{
					OFFSET -0.430247 -48.264931 -6.423300
					CHANNELS 3 Xrotation Yrotation Zrotation
					JOINT LeftToeBase
					{
						OFFSET 4.230900 -16.068199 23.438400
						CHANNELS 3 Xrotation Yrotation Zrotation
						JOINT LeftToe_End
						{
							OFFSET 4.510700 0.695400 19.974600
							CHANNELS 3 Xrotation Yrotation Zrotation
							End Site
							{
								OFFSET 0 0 0
							}
						}
					}
				}
			}
		}
	}
	JOINT RightUpLeg_virtual
	{
		OFFSET 0.000000 0.000000 0.000000
		CHANNELS 3 Xrotation Yrotation Zrotation
		JOINT RightUpLeg
		{
			OFFSET -11.333700 -6.187798 -0.413800
			CHANNELS 3 Xrotation Yrotation Zrotation
			JOINT RightLeg
			{
				OFFSET -0.430392 -32.302628 3.733000
				CHANNELS 3 Xrotation Yrotation Zrotation
				JOINT RightFoot
				{
					OFFSET 0.430392 -48.264973 -6.423500
					CHANNELS 3 Xrotation Yrotation Zrotation
					JOINT RightToeBase
					{
						OFFSET -4.230900 -16.068199 23.438400
						CHANNELS 3 Xrotation Yrotation Zrotation
						JOINT RightToe_End
						{
							OFFSET -4.510700 0.695400 19.974600
							CHANNELS 3 Xrotation Yrotation Zrotation
							End Site
							{
								OFFSET 0 0 0
							}
						}
					}
				}
			}
		}
	}
	JOINT Spine_virtual
	{
		OFFSET 0.000000 0.000000 0.000000
		CHANNELS 3 Xrotation Yrotation Zrotation
		JOINT Spine
		{
			OFFSET -0.002400 12.777504 0.315300
			CHANNELS 3 Xrotation Yrotation Zrotation
			JOINT Spine1
			{
				OFFSET -0.002067 5.816869 0.032633
				CHANNELS 3 Xrotation Yrotation Zrotation
				JOINT Spine1_split
				{
					OFFSET -0.002067 5.816869 0.032633
					CHANNELS 3 Xrotation Yrotation Zrotation
					JOINT Spine2
					{
						OFFSET -0.002067 5.816869 0.032633
						CHANNELS 3 Xrotation Yrotation Zrotation
						JOINT Neck_virtual
						{
							OFFSET 0.000000 0.000000 0.000000
							CHANNELS 3 Xrotation Yrotation Zrotation
							JOINT Neck
							{
								OFFSET -0.003700 21.199493 -0.826900
								CHANNELS 3 Xrotation Yrotation Zrotation
								JOINT Head
								{
									OFFSET 0.000000 20.442200 4.834800
									CHANNELS 3 Xrotation Yrotation Zrotation
									JOINT HeadTop_End
									{
										OFFSET 0.000000 34.668396 4.968400
										CHANNELS 3 Xrotation Yrotation Zrotation
										End Site
										{
											OFFSET 0 0 0
										}
									}
								}
							}
						}
						JOINT LeftShoulder_virtual
						{
							OFFSET 0.000000 0.000000 0.000000
							CHANNELS 3 Xrotation Yrotation Zrotation
							JOINT LeftShoulder
							{
								OFFSET 3.288150 8.794197 -1.372250
								CHANNELS 3 Xrotation Yrotation Zrotation
								JOINT LeftShoulder_split
								{
									OFFSET 3.288150 8.794197 -1.372250
									CHANNELS 3 Xrotation Yrotation Zrotation
									JOINT LeftArm
									{
										OFFSET 11.953299 -2.279007 -0.146200
										CHANNELS 3 Xrotation Yrotation Zrotation
										JOINT LeftForeArm
										{
											OFFSET 18.448900 0.000000 0.000000
											CHANNELS 3 Xrotation Yrotation Zrotation
											JOINT LeftHand
											{
												OFFSET 29.527798 0.000000 0.000000
												CHANNELS 3 Xrotation Yrotation Zrotation
												End Site
												{
													OFFSET 0 0 0
												}
											}
										}
									}
								}
							}
						}
						JOINT RightShoulder_virtual
						{
							OFFSET 0.000000 0.000000 0.000000
							CHANNELS 3 Xrotation Yrotation Zrotation
							JOINT RightShoulder
							{
								OFFSET -3.249400 8.794197 -1.372250
								CHANNELS 3 Xrotation Yrotation Zrotation
								JOINT RightShoulder_split
								{
									OFFSET -3.249400 8.794197 -1.372250
									CHANNELS 3 Xrotation Yrotation Zrotation
									JOINT RightArm
									{
										OFFSET -11.953299 -2.279007 -0.146200
										CHANNELS 3 Xrotation Yrotation Zrotation
										JOINT RightForeArm
										{
											OFFSET -18.448900 0.000000 0.000000
											CHANNELS 3 Xrotation Yrotation Zrotation
											JOINT RightHand
											{
												OFFSET -29.527802 0.000000 0.000000
												CHANNELS 3 Xrotation Yrotation Zrotation
												End Site
												{
													OFFSET 0 0 0
												}
											}
										}
									}
								}
							}
						}
					}
				}
			}
		}
	}
}
MOTION
Frames: 10
Frame Time: 0.03333333
1.863108 100.155701 -7.862007 0.000000 0.000000 0.000000 1.895745 11.715209 1.885918 -21.520294 4.477086 9.890463 22.011258 6.462950 2.401920 -1.617074 11.392756 -12.098751 10.088535 -2.870538 0.263117 0.000000 0.000000 0.000000 2.185307 11.916121 1.855833 -10.682576 -5.021590 -8.604751 18.169587 3.826086 -1.321298 -7.048874 -18.846425 20.240082 0.309764 5.935270 -28.030017 0.000000 0.000000 0.000000 0.261907 15.844832 0.520854 4.277425 -1.040348 1.505891 1.972665 -1.041989 -0.468022 0.111749 0.069310 -0.130452 0.000000 0.000000 0.000000 3.896351 1.447989 -1.079745 3.060359 5.858822 7.883210 -1.841250 -18.322768 -1.335457 0.000000 0.000000 0.000000 2.140208 -0.205974 -1.525047 0.126522 4.692644 -9.108070 -1.473150 -5.522723 0.484353 11.369220 -1.255151 -51.891628 5.721985 -33.341862 -0.363018 0.000000 0.000000 0.000000 3.750003 0.471240 -0.945049 -1.434661 -4.909412 9.212599 0.398457 -1.744547 0.889843 5.226323 6.265547 64.220888 1.369280 23.049722 -1.345451 0.000000 0.000000 0.000000 
1.784473 100.212875 -8.290562 0.000000 0.000000 0.000000 1.677372 11.978659 2.050035 -20.693856 5.170389 9.509444 22.044301 6.426064 2.281636 -2.380397 11.132430 -11.730390 9.205488 -2.913778 0.388660 0.000000 0.000000 0.000000 1.910727 12.223671 1.855010 -11.205094 -5.334785 -8.869985 18.145041 3.986565 -1.359285 -7.444712 -18.115077 20.106805 1.563851 5.562208 -28.075472 0.000000 0.000000 0.000000 0.024999 16.279484 0.803816 4.295527 -1.236703 1.471879 1.761129 -1.154055 -0.412124 0.048122 0.119477 -0.109074 0.000000 0.000000 0.000000 3.712624 1.381526 -1.069960 3.339709 5.959281 7.491959 -1.877911 -18.428388 -1.402040 0.000000 0.000000 0.000000 2.049198 -0.291402 -1.491080 0.128271 4.274388 -9.051555 -1.702402 -5.218345 -0.282154 10.802347 -1.659752 -52.223189 5.762762 -33.481249 -0.164766 0.000000 0.000000 0.000000 3.667414 0.377225 -0.953271 -1.313870 -4.814034 9.348611 0.552337 -1.646079 0.625336 4.954314 6.250061 64.322063 1.401505 23.960973 -1.405959 0.000000 0.000000 0.000000 
1.670483 100.098099 -8.753174 0.000000 0.000000 0.000000 1.462760 12.092106 2.461861 -19.449665 6.469914 9.118922 22.014685 5.968808 1.804182 -3.120735 10.123960 -11.343479 7.653386 -2.999194 1.009672 0.000000 0.000000 0.000000 1.828831 12.558496 2.103702 -12.486957 -5.148384 -9.054119 18.808784 3.770673 -1.352921 -8.352933 -16.960420 18.164704 3.643912 4.886380 -27.131706 0.000000 0.000000 0.000000 0.109536 16.748396 1.270082 4.298674 -1.648235 1.353537 1.425627 -1.337584 -0.376849 0.042087 0.198692 -0.067975 0.000000 0.000000 0.000000 3.380238 1.279478 -1.020478 3.838093 6.210297 6.738087 -2.134109 -18.416599 -1.455508 0.000000 0.000000 0.000000 1.754844 -0.399615 -1.413857 0.123790 3.700658 -9.099392 -1.901728 -4.742232 -1.034205 10.099113 -2.435599 -52.668265 5.960794 -33.356615 0.168147 0.000000 0.000000 0.000000 3.428350 0.227770 -0.939675 -1.129706 -4.803411 9.503227 0.703821 -1.694567 0.209823 4.655703 6.682923 64.257614 1.508241 25.061518 -1.439861 0.000000 0.000000 0.000000 
1.519284 99.781464 -9.089962 0.000000 0.000000 0.000000 1.259548 11.956452 2.983076 -18.066100 8.386009 8.869857 21.696494 5.214539 1.050467 -3.806794 8.576953 -10.635119 5.911606 -3.114116 2.216777 0.000000 0.000000 0.000000 1.908613 12.696069 2.577385 -14.711589 -4.608246 -9.128761 20.558524 3.478811 -1.281621 -8.806967 -15.425805 15.121631 5.193300 4.239615 -25.421606 0.000000 0.000000 0.000000 0.427591 16.824868 1.816917 4.349501 -2.201594 1.157441 1.010550 -1.569263 -0.352959 0.108280 0.211170 -0.035926 0.000000 0.000000 0.000000 2.995183 1.150210 -0.938992 4.460570 6.601502 5.763825 -2.638300 -18.059691 -1.708684 0.000000 0.000000 0.000000 1.306099 -0.521768 -1.313374 0.110927 3.044547 -9.242014 -1.981897 -4.269577 -1.496265 9.577345 -3.463278 -53.158164 6.333131 -33.068306 0.601972 0.000000 0.000000 0.000000 3.057715 0.032421 -0.893712 -0.922237 -4.874446 9.712415 0.710943 -1.880815 -0.248093 4.375022 7.607889 64.005457 1.705178 26.156518 -1.456266 0.000000 0.000000 0.000000 
1.407138 99.342751 -9.291542 0.000000 0.000000 0.000000 1.169279 11.537229 3.471959 -16.727562 10.862616 8.765539 20.793690 4.437974 0.117144 -4.479714 6.773669 -9.427568 4.636021 -3.261590 3.680983 0.000000 0.000000 0.000000 2.051140 12.024669 3.162007 -17.958446 -3.794526 -9.058094 23.293167 3.610730 -1.137845 -8.074983 -13.331135 12.315574 4.787082 3.838635 -23.511827 0.000000 0.000000 0.000000 0.842683 16.275965 2.356622 4.453501 -2.757471 0.957570 0.605874 -1.802305 -0.316270 0.170569 0.142791 -0.030219 0.000000 0.000000 0.000000 2.633177 0.994803 -0.836341 5.043755 7.062188 4.704180 -3.408042 -17.199630 -2.304607 0.000000 0.000000 0.000000 0.813092 -0.652567 -1.210759 0.091090 2.403796 -9.420720 -1.997172 -3.880728 -1.620684 9.527507 -4.685873 -53.611996 6.882566 -32.889290 1.152289 0.000000 0.000000 0.000000 2.606783 -0.185861 -0.804582 -0.751335 -5.017571 10.033701 0.345377 -2.128737 -0.856972 4.210555 8.928521 63.556194 2.003884 27.091337 -1.473981 0.000000 0.000000 0.000000 
1.377148 99.007034 -9.205662 0.000000 0.000000 0.000000 1.160691 10.668773 3.860603 -15.487377 13.523944 8.699978 19.483541 3.785439 -0.851292 -4.995439 4.971915 -7.930234 4.028660 -3.353141 5.048349 0.000000 0.000000 0.000000 2.099950 10.298324 3.714688 -21.697961 -2.927767 -8.695674 26.765078 4.484650 -1.024498 -6.110945 -10.675469 10.420133 2.429678 3.598072 -21.883892 0.000000 0.000000 0.000000 1.352681 15.216200 2.771693 4.590253 -3.194282 0.816525 0.299447 -1.993141 -0.277221 0.185332 -0.023138 -0.026924 0.000000 0.000000 0.000000 2.348856 0.823991 -0.741802 5.479187 7.534570 3.685856 -4.395298 -15.705989 -3.374531 0.000000 0.000000 0.000000 0.391290 -0.790562 -1.141043 0.077839 1.909226 -9.621225 -1.915273 -3.516557 -1.330059 10.146377 -6.056464 -53.944219 7.608264 -32.978448 1.828785 0.000000 0.000000 0.000000 2.155969 -0.400130 -0.698141 -0.659401 -5.233707 10.490791 -0.179038 -2.302981 -1.444421 4.261986 10.365066 62.990306 2.398481 27.932883 -1.508560 0.000000 0.000000 0.000000 
1.395682 98.894577 -9.248013 0.000000 0.000000 0.000000 1.163918 9.557310 4.088654 -14.745438 15.980949 8.612169 18.329400 3.386776 -1.676935 -5.246629 3.275815 -6.621820 3.784891 -3.355368 6.045516 0.000000 0.000000 0.000000 2.125395 7.859881 4.059787 -24.874328 -2.286237 -7.839959 29.883119 5.829658 -1.062697 -3.953232 -7.697798 9.211833 -0.587825 3.276006 -20.588726 0.000000 0.000000 0.000000 1.926346 13.833234 3.008511 4.718003 -3.456461 0.764613 0.149798 -2.136007 -0.240115 0.148222 -0.202662 -0.050361 0.000000 0.000000 0.000000 2.177601 0.657823 -0.665108 5.746331 7.976507 2.809491 -5.579579 -13.691872 -4.811262 0.000000 0.000000 0.000000 0.118608 -0.900077 -1.111791 0.085391 1.621270 -9.767571 -1.947623 -3.191783 -0.968979 11.358544 -7.482260 -54.085987 8.439298 -33.205699 2.597392 0.000000 0.000000 0.000000 1.799879 -0.589542 -0.618057 -0.638243 -5.561326 11.046275 -0.598173 -2.184908 -1.908841 4.623261 11.554301 62.452347 2.842731 28.856637 -1.551996 0.000000 0.000000 0.000000 
1.426326 99.071686 -9.337818 0.000000 0.000000 0.000000 1.197079 8.437535 4.115132 -14.483225 17.630793 8.256538 17.753813 3.548028 -2.175339 -5.442035 2.021775 -5.615316 3.777809 -3.283523 6.218833 0.000000 0.000000 0.000000 2.184182 5.644660 4.124152 -26.373401 -1.839845 -6.351224 31.572590 7.169510 -1.193210 -3.009607 -4.728666 7.952600 -2.472474 2.707316 -19.504462 0.000000 0.000000 0.000000 2.530999 12.385754 2.967090 4.823600 -3.539608 0.830343 0.160800 -2.226278 -0.209983 0.125468 -0.306060 -0.062192 0.000000 0.000000 0.000000 2.150262 0.503985 -0.609220 5.904940 8.324948 2.164159 -6.736640 -11.452592 -6.280931 0.000000 0.000000 0.000000 0.032938 -0.982182 -1.123365 0.115618 1.595844 -9.811652 -2.046226 -3.068117 -0.523896 12.917167 -8.972325 -54.033469 9.260716 -33.432273 3.392870 0.000000 0.000000 0.000000 1.668051 -0.739106 -0.587454 -0.654256 -6.020648 11.654275 -0.820245 -1.619431 -2.286701 5.307918 12.086840 62.104069 3.275426 30.025184 -1.570422 0.000000 0.000000 0.000000 
1.462337 99.458588 -9.376171 0.000000 0.000000 0.000000 1.234029 7.564544 3.856335 -14.707370 17.712528 7.614821 18.074649 4.185847 -2.002076 -5.680476 1.522685 -5.169573 3.577062 -3.133959 5.742948 0.000000 0.000000 0.000000 2.359405 4.562566 3.830424 -25.663435 -1.584529 -4.463944 31.135339 8.015440 -1.282113 -3.522523 -2.253838 6.295339 -2.586523 2.057769 -18.465292 0.000000 0.000000 0.000000 3.113512 11.207741 2.621929 4.851372 -3.494281 0.978979 0.304095 -2.286974 -0.211278 0.135208 -0.381423 -0.035065 0.000000 0.000000 0.000000 2.265610 0.383630 -0.566716 6.082045 8.580179 1.879410 -7.615586 -9.275199 -7.436911 0.000000 0.000000 0.000000 0.106157 -1.032096 -1.182560 0.161026 1.804133 -9.778134 -2.135672 -3.225525 -0.111501 14.393413 -10.523212 -53.826634 9.902450 -33.468234 4.062017 0.000000 0.000000 0.000000 1.801685 -0.841504 -0.616067 -0.652585 -6.577846 12.261493 -0.934946 -0.758006 -2.415874 6.225483 11.709372 62.046620 3.621363 31.570722 -1.521889 0.000000 0.000000 0.000000 
1.477378 99.949120 -9.286522 0.000000 0.000000 0.000000 1.509637 7.291873 3.276312 -15.347035 16.481885 6.801864 18.994490 5.676299 -1.128203 -6.307145 1.893948 -4.639790 2.932047 -2.980448 4.892019 0.000000 0.000000 0.000000 2.584094 4.524958 3.176300 -23.190330 -1.584259 -2.574317 28.692003 8.116116 -1.236615 -4.877597 -0.783501 4.460940 -1.394203 1.516356 -17.502677 0.000000 0.000000 0.000000 3.508627 10.399624 2.047409 4.802728 -3.358809 1.188282 0.550514 -2.321489 -0.232503 0.151638 -0.370471 -0.008871 0.000000 0.000000 0.000000 2.483111 0.313305 -0.533705 6.408848 8.693326 2.016726 -8.063539 -7.528437 -8.048312 0.000000 0.000000 0.000000 0.315458 -1.051568 -1.260966 0.207377 2.134712 -9.657597 -2.205793 -3.660363 0.039604 15.405813 -12.057955 -53.508388 10.189846 -33.308442 4.481118 0.000000 0.000000 0.000000 2.147505 -0.893227 -0.674400 -0.611460 -7.163999 12.821252 -1.009340 0.234810 -2.228059 7.293362 10.566317 62.207819 3.828331 33.462572 -1.393402 0.000000 0.000000 0.000000 
